<?xml version="1.0" encoding="utf-8"?>
<!-- Generator: Adobe Illustrator 22.1.0, SVG Export Plug-In . SVG Version: 6.00 Build 0)  -->
<svg version="1.1" id="Layer_1" xmlns="http://www.w3.org/2000/svg" xmlns:xlink="http://www.w3.org/1999/xlink" x="0px" y="0px"
	 viewBox="0 0 656.1 116" style="enable-background:new 0 0 656.1 116;" xml:space="preserve">
<style type="text/css">
	.st0{filter:url(#Adobe_OpacityMaskFilter);}
	.st1{fill:#FFFFFF;}
	.st2{mask:url(#logo-_x2013_-colour-b_2_);fill:#006EFF;}
	.st3{fill:#29333D;}
	.st4{fill:#006EFF;}
</style>
<g>
	<defs>
		<filter id="Adobe_OpacityMaskFilter" filterUnits="userSpaceOnUse" x="0" y="0" width="116.6" height="116">
			<feColorMatrix  type="matrix" values="1 0 0 0 0  0 1 0 0 0  0 0 1 0 0  0 0 0 1 0"/>
		</filter>
	</defs>
	<mask maskUnits="userSpaceOnUse" x="0" y="0" width="116.6" height="116" id="logo-_x2013_-colour-b_2_">
		<g class="st0">
			<polygon id="logo-_x2013_-colour-a_2_" class="st1" points="0.1,0 116.6,0 116.6,116 0.1,116 			"/>
		</g>
	</mask>
	<path class="st2" d="M90.2,0H20.1C9,0,0,8.9,0,20v69.8c0,11.1,9,20,20.1,20h0.7c7.7,0,71.4,0.1,93,6c0.1,0,0.4,0.1,0.6,0.1
		c1.4,0,2.6-1.4,2.2-2.9c-6.9-28.5-6.4-93.2-6.4-93.2C110.3,8.9,101.4,0,90.2,0z M90.2,10.7c5.2,0,9.4,4.2,9.4,9.4
		c0,3-0.4,51.5,4.3,83.2c-27.3-3.7-72.9-4-83.2-4h-0.7c-5.2,0-9.4-4.2-9.4-9.4V20c0-5.2,4.2-9.4,9.4-9.4H90.2z"/>
	<path class="st3" d="M614.3,40.2c-6.1,0-10.6,2.7-13.3,7.9v-6.9h-10.6v43.6h11.1V68.5c0-13.4,5.2-18.1,10.1-18.1
		c3.2,0,4.5,2,4.5,7.2v27.5h11.1V55.3C627.2,45.8,622.6,40.2,614.3,40.2z M557.8,57.9c0.3-6.3,2.7-9.1,8.4-9.1
		c4.6,0,7.4,1.4,7.4,9.1H557.8z M566.4,40.2c-6.4,0-11.3,1.9-14.6,5.8c-3.6,3.9-5.4,10.1-5.4,18.3s1.7,13.4,5.6,17
		c3.5,3.3,7.8,4.8,13.9,4.8c7.5,0,13.3-2.3,17.9-7.2l0.1-0.1l-5.6-6.6l-0.1,0.1c-3.6,3.3-7.5,4.9-12,4.9c-7.1,0-8.5-3.7-8.7-11.1
		l26.6-0.1v-0.1c0.3-2,0.4-4,0.4-5.6C584.7,43.6,574.8,40.2,566.4,40.2z M501.9,40.2c-6.1,0-10.6,2.7-13.3,7.9v-6.9h-10.6v43.6h11.1
		V68.5c0-13.4,5.2-18.1,10.1-18.1c3.2,0,4.5,2,4.5,7.2v27.5H515V55.3C515,45.8,510.2,40.2,501.9,40.2z M458.9,74.4
		c-0.7,0.9-2.5,2.3-6.1,2.3c-2.6,0-4.6-0.7-5.8-2c-1.7-1.9-2.6-5.8-2.6-11.2c0-5.6,0.9-9.6,2.6-11.7c1.3-1.4,3.3-2.3,6.1-2.3
		c2.7,0,4.6,0.7,5.8,2c1.6,1.7,2.6,5.8,2.6,11.2C461.6,68.4,460.6,72.4,458.9,74.4z M453.5,40.2c-6.4,0-11.3,1.7-14.8,5.3
		c-3.9,3.9-5.6,9.4-5.6,18.4c0,7.2,0.9,12.8,5.3,17.1c3.6,3.5,8.1,5,14.2,5c6.4,0,11-1.7,14.8-5.6c3.9-4,5.5-9.2,5.5-18
		c0-7.3-0.9-13-5.4-17.3C464.1,41.8,459.6,40.2,453.5,40.2z M423.6,69.8c-3.8,4.2-8.1,6.3-13.2,6.3c-3.5,0-5.9-1-7.7-3.2
		c-2.3-2.9-3.3-8.1-3.3-17.3c0-8.9,0.9-14.7,2.7-17.4c1.7-2.6,4.8-3.9,9.3-3.9c4.8,0,8.7,1.4,11.7,4.5l0.1,0.1l6.4-7.8l-0.1-0.1
		c-4-4.5-10-6.6-17.8-6.6c-7.5,0-13.2,2-17.2,6.2c-5.1,5.3-7.2,13-7.2,25.1c0,15.7,4,21.6,7.1,24.8c3.8,3.9,9,5.8,15.8,5.8
		c8.4,0,15-3,20.1-9.2l0.1-0.1L423.6,69.8z M378.7,40.2c-5.1,0-9.1,2.7-11.6,7.9l0.1-6.8h-10.6v43.6h11.1V69.4
		c0-11.5,3.8-18.3,10.1-18.3c1.3,0,2.9,0.3,3.5,0.7h0.3l2.2-10.5h-0.1C382.5,40.6,380.6,40.2,378.7,40.2z M324.9,57.9
		c0.3-6.3,2.7-9.1,8.4-9.1c4.6,0,7.4,1.4,7.4,9.1H324.9z M333.6,40.2c-6.4,0-11.3,1.9-14.6,5.8c-3.6,3.9-5.4,10.1-5.4,18.3
		s1.7,13.4,5.6,17c3.5,3.3,7.8,4.8,13.9,4.8c7.5,0,13.3-2.3,17.9-7.2l0.1-0.1l-5.6-6.6l-0.1,0.1c-3.6,3.3-7.5,4.9-12,4.9
		c-7.1,0-8.5-3.7-8.7-11.1l26.6-0.1v-0.1c0.3-2,0.4-4,0.4-5.6C351.7,43.6,341.9,40.2,333.6,40.2z M296,40.2
		c-5.6,0-10.4,2.7-12.7,7.1V24.9h-11.1v60h11.1V68.8c0-13.5,5.2-18.4,10.1-18.4c3.2,0,4.5,2,4.5,6.8v27.9H309V55.3
		C308.9,45.8,304.3,40.2,296,40.2z M655.5,75.2h-0.3c-1.9,0.4-4.2,0.7-6.2,0.7c-4.9,0-5.4-1.7-5.4-7.1v-17h12V42h-12V30.8h-11.1
		v38.7c0,10.1,2.3,16,14.5,16c3,0,6.5-0.4,9-1h0.1L655.5,75.2z M543.3,75.2c-1.9,0.4-4.2,0.7-6.2,0.7c-4.9,0-5.4-1.7-5.4-7.1v-17h12
		V42h-12V30.8h-11.1v38.7c0,10.1,2.3,16,14.5,16c3,0,6.5-0.4,9-1h0.1L543.3,75.2z M264.9,75.2c-1.9,0.4-4.2,0.7-6.2,0.7
		c-4.9,0-5.4-1.7-5.4-7.1v-17h12V42h-12V30.8h-11.1v38.7c0,10.1,2.3,16,14.5,16c3,0,6.5-0.4,9-1h0.1L264.9,75.2z M226,65.9
		c-0.4,7.9-6.7,11.5-10.8,11.5c-2.9,0-4.2-1.6-4.2-5.2c0-5.3,3-6.3,9-6.3H226z M219.1,40.3c-7.5,0-12.9,2-16.8,6.2l-0.1,0.1l5.6,6.6
		l0.1-0.1c2.7-2.9,5.9-4,10.6-4c5.6,0,7.5,1.9,7.5,7.6v1.4h-5.2c-6.9,0-11.7,1.2-15.3,3.6c-3.6,2.4-5.2,5.9-5.2,10.9
		c0,4.3,1.2,7.3,3.8,9.8c2.6,2.3,5.6,3.5,9.5,3.5c5.6,0,10.1-2.3,13.2-6.8v5.8h9.8V56.7C236.6,45.5,231.1,40.3,219.1,40.3z
		 M172.8,61.5h11.4v13.8c-2.6,0.7-6.2,1.2-9.7,1.2c-5.1,0-8.2-0.9-10.4-3.2c-2.9-2.7-3.5-8.9-3.5-18.1c0-11.2,1.2-14.8,3.2-17.3
		c2-2.3,5.2-3.5,10-3.5c5.6,0,10.1,1.4,13.7,4.5l0.1,0.1l6.5-8.1l-0.1-0.1c-4.3-4.2-10.7-6.2-19.2-6.2c-8.7,0-14.9,2.2-19.2,6.5
		c-6.2,6.3-7.1,15.8-7.1,25.1c0,9.9,1.2,17.9,6.9,23.5c4.2,4.3,10.4,6.3,19.5,6.3c7.1,0,14.2-1.3,19.8-3.6h0.1V51.8h-22.1V61.5z"/>
	<polygon class="st4" points="23.4,42.3 61.6,42.3 61.6,31.7 23.4,31.7 	"/>
	<polygon class="st4" points="23.4,60.3 87.1,60.3 87.1,49.7 23.4,49.7 	"/>
	<polygon class="st4" points="23.4,78.5 74.3,78.5 74.3,67.8 23.4,67.8 	"/>
</g>
</svg>
